<svg xmlns="http://www.w3.org/2000/svg" viewBox="0 0 100 100" width="100" height="100">
  <defs>
    <linearGradient id="gold-grad" x1="0%" y1="0%" x2="100%" y2="100%">
      <stop offset="0%" stop-color="#fbbf24" />
      <stop offset="100%" stop-color="#d97706" />
    </linearGradient>
    <linearGradient id="emerald-grad" x1="0%" y1="0%" x2="100%" y2="100%">
      <stop offset="0%" stop-color="#34d399" />
      <stop offset="100%" stop-color="#064e3b" />
    </linearGradient>
  </defs>
  <!-- Outer smooth diamond-hex shape -->
  <path d="M 50 5 L 85 25 L 85 75 L 50 95 L 15 75 L 15 25 Z" fill="url(#emerald-grad)" stroke="url(#gold-grad)" stroke-width="3" stroke-linejoin="round" />
  <!-- Secondary Inner Star Outline -->
  <path d="M 50 18 L 60 38 L 82 38 L 65 52 L 72 72 L 50 60 L 28 72 L 35 52 L 18 38 L 40 38 Z" fill="none" stroke="#ffffff" stroke-width="2" opacity="0.3" />
  <!-- Balance scale symbol for justice and calculation (Hisab) -->
  <path d="M 50 30 L 50 65 M 35 40 L 65 40 M 35 40 L 30 55 M 35 40 L 40 55 M 65 40 L 60 55 M 65 40 L 70 55 M 35 55 L 25 55 A 1 1 0 0 0 45 55 Z M 65 55 L 55 55 A 1 1 0 0 0 75 55 Z M 40 65 L 60 65" stroke="url(#gold-grad)" stroke-width="3" stroke-linecap="round" stroke-linejoin="round" fill="none" />
</svg>
